PathFileType	4	(X/Y/Z)	Walk2.trc
DataRate	CameraRate	NumFrames	NumMarkers	Units	OrigDataRate	OrigDataStartFrame	OrigNumFrames
200.000000	200.000000	7	61	mm	200.000000	417	591
Frame#	Times		LFHD		RFHD		CLAV		STRN		LASI		RASI		RACR1		RUA1		RElbow		RFA1		RWRR		RWRU		RCAR		LACR1		LUA1		LElbow		LFA1		LWRR		RTH3		RTH2		RTB1		RTB3		RTB2		RTB4		LTH1		LTH3		LLFC		LMFC		LTB1		LTB2		LMT1		LWRU		LCAR		LTB3		RMFC		LTB4		RMMAL		LTH4		LTH2		RToe		RElbowM		RMT1		RLFC		RTH4		RTH1		LBHD		RCAL		RLMAL		LToe		RBack		RMT5		LMT5		RPSI		LLMAL		C7		LPSI		LMMAL		T10		LCAL		RBHD		LElbowM
			X1	Y1	Z1	X2	Y2	Z2	X3	Y3	Z3	X4	Y4	Z4	X5	Y5	Z5	X6	Y6	Z6	X7	Y7	Z7	X8	Y8	Z8	X9	Y9	Z9	X10	Y10	Z10	X11	Y11	Z11	X12	Y12	Z12	X13	Y13	Z13	X14	Y14	Z14	X15	Y15	Z15	X16	Y16	Z16	X17	Y17	Z17	X18	Y18	Z18	X19	Y19	Z19	X20	Y20	Z20	X21	Y21	Z21	X22	Y22	Z22	X23	Y23	Z23	X24	Y24	Z24	X25	Y25	Z25	X26	Y26	Z26	X27	Y27	Z27	X28	Y28	Z28	X29	Y29	Z29	X30	Y30	Z30	X31	Y31	Z31	X32	Y32	Z32	X33	Y33	Z33	X34	Y34	Z34	X35	Y35	Z35	X36	Y36	Z36	X37	Y37	Z37	X38	Y38	Z38	X39	Y39	Z39	X40	Y40	Z40	X41	Y41	Z41	X42	Y42	Z42	X43	Y43	Z43	X44	Y44	Z44	X45	Y45	Z45	X46	Y46	Z46	X47	Y47	Z47	X48	Y48	Z48	X49	Y49	Z49	X50	Y50	Z50	X51	Y51	Z51	X52	Y52	Z52	X53	Y53	Z53	X54	Y54	Z54	X55	Y55	Z55	X56	Y56	Z56	X57	Y57	Z57	X58	Y58	Z58	X59	Y59	Z59	X60	Y60	Z60	X61	Y61	Z61

417	2.085	444.19	1672.4	-27.712	446.06	1675	71.456	451.73	1414.1	29.689	518.63	1256	19.101	393.91	1008.5	-168.36	426.74	991.18	199.35	339.46	1490.2	204.95	316.15	1319.4	317.96	326.14	1169.9	364.54	357.18	1019	380.18	382.52	901.41	311.93	370.51	905.13	392.88	407	822.28	361.92	328.42	1482.6	-147.63	285.83	1316.8	-241.29	268.68	1157.8	-300.47	301.81	1022.8	-321.23	370.45	904.42	-272.5	391.5	614.34	196.71	425.51	713.82	200.71	451.14	379.62	107.04	414.01	211.93	85.286	415.87	292.51	155.39	432.79	295.32	96.212	369.31	777.22	-208.99	410.57	610.3	-211.05	396.33	531.6	-211.81	433.94	513.9	-57.419	411.08	396.34	-153.36	328.29	341.73	-183.81	247.28	62.781	-101.01	321.9	884.14	-325.96	389.22	822.47	-311.44	303.89	268.22	-112.94	389.95	504.74	31.82	361.69	331.59	-132.01	355.63	84.156	23.45	388.96	694.72	-210.9	445.44	707.74	-194.35	527.98	30.816	91.385	272.94	1099.7	268.17	482.6	26.657	56.863	396.26	498.83	187.88	369.57	696.16	210.56	345.91	778.53	224.54	295.56	1591.3	-34.751	260.8	49.866	62.371	321.87	75	108.82	283.62	46.25	-145.57	195.84	1371.8	147.29	429.25	28.931	151.16	185.8	85.261	-165.58	154.98	1038.6	63.436	139.48	188.35	-103.83	257.69	1492.3	35.811	161.33	1043.3	-21.507	175.71	180.64	-22.028	198.17	1176.2	28.965	88.663	189.16	-40.436	313.41	1600.8	113.13	216.44	1093.9	-205.39
418	2.09	449.77	1673.3	-27.491	451.67	1675.9	71.673	457.25	1415	29.964	524.18	1257	19.406	400.21	1009.3	-167.44	432.2	992.7	199.54	344.88	1491.1	205.23	322.07	1320.3	318.4	332.93	1171	365.28	364.92	1020.4	381.08	391.05	902.83	312.95	378.98	906.58	393.9	415.99	823.89	363.06	333.98	1483.5	-147.35	290.89	1317.9	-240.96	272.76	1158.9	-299.99	304.67	1023.6	-320.73	372.35	904.58	-271.99	393.68	614.49	196.87	428.71	713.62	200.95	451.91	379.41	107.24	414.41	211.82	85.398	416.33	292.39	155.52	433.38	295.16	96.363	376.77	778.33	-208.33	419.5	611.73	-209.81	406.04	532.92	-210.33	443.39	515.81	-56.06	423.05	397.92	-152.05	341.4	341.65	-182.67	266.93	61.531	-100.46	323.52	884.72	-325.4	390.11	822.24	-310.83	318.49	267.56	-111.96	391.14	504.78	31.869	375.04	332.16	-130.89	355.77	84.195	23.441	397.16	695.97	-209.93	453.53	709.52	-193.43	528.08	30.695	91.608	280.22	1100.3	268.96	482.62	26.694	56.953	397.44	498.85	187.98	372.58	696.52	210.82	349.78	779.12	224.89	301.12	1592.2	-34.469	260.88	49.981	62.324	321.99	75.125	108.83	303.72	45.956	-144.92	201.39	1372.6	147.57	429.22	28.937	151.3	204.88	82.502	-165.03	160.53	1039.7	63.53	155.76	184.12	-103.12	263.28	1493.2	36.092	167.12	1044.2	-21.453	192.03	177.17	-21.291	203.88	1177.1	29.175	104.69	183.54	-39.845	318.93	1601.8	113.4	220.04	1095.5	-204.85
419	2.095	455.34	1674.1	-27.3	457.26	1676.8	71.861	462.76	1415.9	30.221	529.72	1257.9	19.711	406.53	1010.1	-166.48	437.65	994.16	199.7	350.3	1492	205.49	327.98	1321.2	318.83	339.71	1172.1	366	372.64	1021.6	381.97	399.56	904.2	313.95	387.44	907.97	394.9	424.95	825.46	364.17	339.53	1484.4	-147.09	295.95	1318.8	-240.66	276.86	1160	-299.53	307.57	1024.3	-320.25	374.27	904.73	-271.49	395.89	614.63	197	431.92	713.42	201.13	452.68	379.21	107.41	414.82	211.71	85.49	416.8	292.26	155.62	433.97	295	96.495	384.21	779.38	-207.67	428.35	613.12	-208.55	415.66	534.21	-208.83	452.71	517.66	-54.656	434.95	399.48	-150.73	354.5	341.55	-181.52	286.65	60.296	-99.957	325.19	885.28	-324.86	391.04	822	-310.21	333.15	266.87	-110.98	392.37	504.81	31.883	388.38	332.71	-129.76	355.93	84.23	23.421	405.3	697.17	-208.96	461.56	711.25	-192.47	528.18	30.581	91.818	287.49	1100.9	269.76	482.65	26.726	57.038	398.63	498.86	188.06	375.63	696.86	211.06	353.68	779.7	225.2	306.66	1593.1	-34.214	260.97	50.095	62.268	322.11	75.254	108.83	323.83	45.696	-144.34	206.93	1373.3	147.84	429.19	28.947	151.42	224.04	79.745	-164.51	166.08	1040.7	63.619	172.2	179.83	-102.41	268.86	1494	36.353	172.89	1044.9	-21.408	208.53	173.65	-20.564	209.58	1177.9	29.348	120.94	177.84	-39.239	324.44	1602.7	113.64	223.62	1097	-204.35
420	2.1	460.9	1674.8	-27.139	462.84	1677.6	72.021	468.25	1416.7	30.461	535.25	1258.7	20.016	412.87	1010.8	-165.49	443.09	995.56	199.86	355.69	1492.7	205.74	333.88	1322.1	319.23	346.48	1173	366.72	380.37	1022.9	382.84	408.04	905.53	314.93	395.88	909.32	395.88	433.89	826.98	365.25	345.07	1485.2	-146.85	301.01	1319.8	-240.4	280.97	1160.9	-299.11	310.5	1025	-319.79	376.23	904.86	-270.99	398.12	614.77	197.12	435.14	713.2	201.28	453.45	379	107.55	415.23	211.6	85.563	417.28	292.14	155.71	434.56	294.83	96.61	391.61	780.38	-207.02	437.11	614.46	-207.27	425.17	535.44	-207.3	461.93	519.44	-53.211	446.77	401.02	-149.41	367.57	341.42	-180.37	306.41	59.09	-99.508	326.9	885.81	-324.33	392.01	821.75	-309.58	347.85	266.17	-110.04	393.64	504.84	31.868	401.69	333.23	-128.65	356.09	84.263	23.391	413.37	698.32	-208	469.5	712.92	-191.48	528.26	30.473	92.016	294.76	1101.5	270.58	482.68	26.755	57.118	399.81	498.87	188.1	378.7	697.18	211.27	357.6	780.25	225.5	312.2	1593.8	-33.984	261.07	50.207	62.202	322.24	75.382	108.82	343.93	45.481	-143.83	212.46	1374	148.09	429.16	28.96	151.54	243.26	77.007	-164.01	171.62	1041.6	63.7	188.79	175.5	-101.7	274.43	1494.8	36.594	178.64	1045.7	-21.372	225.2	170.07	-19.847	215.27	1178.6	29.487	137.42	172.1	-38.61	329.93	1603.5	113.85	227.19	1098.5	-203.9
421	2.105	466.46	1675.5	-27.005	468.42	1678.3	72.151	473.74	1417.5	30.683	540.77	1259.5	20.324	419.2	1011.5	-164.48	448.52	996.88	199.99	361.08	1493.5	205.96	339.76	1322.8	319.63	353.25	1174	367.42	388.08	1024	383.69	416.49	906.8	315.9	404.32	910.62	396.85	442.81	828.46	366.31	350.61	1485.9	-146.64	306.06	1320.6	-240.16	285.1	1161.8	-298.71	313.47	1025.7	-319.35	378.22	904.96	-270.49	400.38	614.89	197.23	438.36	712.96	201.4	454.23	378.78	107.67	415.65	211.48	85.62	417.76	292.02	155.78	435.15	294.66	96.71	398.97	781.33	-206.37	445.8	615.75	-205.97	434.58	536.62	-205.75	471.03	521.14	-51.729	458.52	402.53	-148.09	380.61	341.28	-179.22	326.23	57.924	-99.122	328.66	886.31	-323.8	393.02	821.48	-308.94	362.59	265.46	-109.11	394.93	504.87	31.833	414.97	333.73	-127.56	356.25	84.294	23.353	421.39	699.42	-207.04	477.38	714.52	-190.45	528.34	30.372	92.202	302.02	1102	271.4	482.72	26.78	57.196	400.99	498.87	188.12	381.8	697.48	211.47	361.54	780.77	225.78	317.73	1594.6	-33.781	261.16	50.319	62.128	322.37	75.508	108.8	364.02	45.32	-143.42	217.98	1374.6	148.32	429.13	28.974	151.64	262.53	74.303	-163.54	177.16	1042.6	63.769	205.52	171.17	-100.98	279.99	1495.5	36.816	184.37	1046.4	-21.344	242.03	166.47	-19.136	220.95	1179.3	29.59	154.12	166.33	-37.952	335.42	1604.3	114.04	230.75	1099.9	-203.5
422	2.11	472.02	1676.1	-26.9	473.99	1678.9	72.253	479.21	1418.2	30.889	546.28	1260.2	20.634	425.54	1012.1	-163.46	453.93	998.11	200.13	366.45	1494.1	206.17	345.65	1323.5	320	360.02	1174.8	368.1	395.79	1025.2	384.52	424.91	908.03	316.84	412.74	911.87	397.8	451.71	829.89	367.33	356.15	1486.6	-146.45	311.12	1321.4	-239.95	289.26	1162.7	-298.34	316.47	1026.3	-318.91	380.24	905.04	-270	402.65	615.01	197.33	441.59	712.7	201.49	455.02	378.56	107.77	416.07	211.36	85.661	418.25	291.9	155.84	435.73	294.48	96.798	406.3	782.22	-205.72	454.4	616.99	-204.66	443.87	537.75	-204.2	480.04	522.77	-50.217	470.19	404.02	-146.79	393.6	341.13	-178.07	346.06	56.813	-98.805	330.47	886.77	-323.29	394.08	821.19	-308.29	377.35	264.74	-108.22	396.25	504.9	31.786	428.2	334.21	-126.48	356.41	84.323	23.31	429.34	700.47	-206.08	485.17	716.05	-189.38	528.41	30.277	92.378	309.27	1102.4	272.24	482.75	26.803	57.271	402.18	498.87	188.12	384.91	697.76	211.64	365.5	781.26	226.03	323.25	1595.2	-33.603	261.26	50.43	62.044	322.51	75.63	108.76	384.08	45.222	-143.11	223.5	1375.1	148.53	429.11	28.988	151.74	281.83	71.649	-163.11	182.68	1043.4	63.823	222.38	166.83	-100.24	285.55	1496.1	37.017	190.08	1047	-21.326	259.04	162.85	-18.432	226.61	1179.9	29.659	171.03	160.55	-37.259	340.91	1605	114.2	234.31	1101.2	-203.14
423	2.115	477.58	1676.6	-26.822	479.56	1679.5	72.328	484.68	1418.8	31.08	551.78	1260.8	20.946	431.86	1012.7	-162.44	459.34	999.25	200.26	371.82	1494.7	206.36	351.53	1324.2	320.36	366.79	1175.6	368.77	403.5	1026.2	385.33	433.3	909.2	317.77	421.15	913.07	398.73	460.59	831.26	368.33	361.69	1487.2	-146.28	316.17	1322.2	-239.76	293.43	1163.5	-297.99	319.52	1026.8	-318.49	382.3	905.08	-269.51	404.94	615.11	197.42	444.82	712.42	201.56	455.81	378.34	107.85	416.5	211.23	85.691	418.75	291.77	155.88	436.31	294.3	96.875	413.58	783.05	-205.08	462.91	618.17	-203.35	453.04	538.82	-202.63	488.95	524.32	-48.678	481.76	405.48	-145.5	406.54	340.97	-176.93	365.92	55.767	-98.558	332.33	887.19	-322.78	395.18	820.88	-307.63	392.14	264.04	-107.35	397.57	504.92	31.733	441.38	334.67	-125.42	356.58	84.35	23.264	437.22	701.46	-205.13	492.89	717.52	-188.27	528.47	30.189	92.543	316.51	1102.8	273.08	482.78	26.824	57.346	403.38	498.86	188.11	388.03	698.02	211.81	369.46	781.72	226.27	328.77	1595.8	-33.452	261.36	50.541	61.951	322.64	75.747	108.72	404.1	45.194	-142.9	229.01	1375.6	148.72	429.09	29.002	151.82	301.16	69.056	-162.71	188.19	1044.2	63.859	239.36	162.52	-99.492	291.09	1496.7	37.196	195.78	1047.6	-21.317	276.21	159.23	-17.731	232.26	1180.4	29.696	188.15	154.78	-36.526	346.4	1605.6	114.34	237.87	1102.5	-202.82
